HIERARCHY
ROOT Pelvis
{
	OFFSET 0.000000 0.000000 0.000000
	CHANNELS 6 Xposition Yposition Zposition Zrotation Yrotation Xrotation 
	JOINT Left_hip
	{
		OFFSET 0.070241 -0.085575 -0.010474
		CHANNELS 3 Zrotation Yrotation Xrotation
		JOINT Left_knee
		{
			OFFSET 0.032125 -0.356873 -0.000555
			CHANNELS 3 Zrotation Yrotation Xrotation
			JOINT Left_ankle
			{
				OFFSET -0.010961 -0.370212 -0.042278
				CHANNELS 3 Zrotation Yrotation Xrotation
				JOINT Left_foot
				{
					OFFSET 0.023322 -0.052281 0.110104
					CHANNELS 3 Zrotation Yrotation Xrotation
					End Site
					{
						OFFSET 0.000000 0.000000 0.000000
					}
				}
			}
		}
	}
	JOINT Right_hip
	{
		OFFSET -0.068518 -0.084320 -0.007402
		CHANNELS 3 Zrotation Yrotation Xrotation
		JOINT Right_knee
		{
			OFFSET -0.037345 -0.364815 -0.003619
			CHANNELS 3 Zrotation Yrotation Xrotation
			JOINT Right_ankle
			{
				OFFSET 0.013394 -0.370006 -0.039954
				CHANNELS 3 Zrotation Yrotation Xrotation
				JOINT Right_foot
				{
					OFFSET -0.019600 -0.045455 0.113223
					CHANNELS 3 Zrotation Yrotation Xrotation
					End Site
					{
						OFFSET 0.000000 0.000000 0.000000
					}
				}
			}
		}
	}
	JOINT Spine1
	{
		OFFSET -0.002404 0.098129 -0.018169
		CHANNELS 3 Zrotation Yrotation Xrotation
		JOINT Spine2
		{
			OFFSET 0.003989 0.127209 -0.001742
			CHANNELS 3 Zrotation Yrotation Xrotation
			JOINT Spine3
			{
				OFFSET 0.001758 0.046641 0.023475
				CHANNELS 3 Zrotation Yrotation Xrotation
				JOINT Neck
				{
					OFFSET -0.003759 0.194901 -0.039982
					CHANNELS 3 Zrotation Yrotation Xrotation
					JOINT Head
					{
						OFFSET 0.003999 0.063756 0.047665
						CHANNELS 3 Zrotation Yrotation Xrotation
						End Site
						{
							OFFSET 0.000000 0.000000 0.000000
						}
					}
				}
				JOINT Left_collar
				{
					OFFSET 0.071816 0.109048 -0.028973
					CHANNELS 3 Zrotation Yrotation Xrotation
					JOINT Left_shoulder
					{
						OFFSET 0.084027 0.032269 -0.006525
						CHANNELS 3 Zrotation Yrotation Xrotation
						JOINT Left_elbow
						{
							OFFSET 0.243854 -0.013992 -0.025905
							CHANNELS 3 Zrotation Yrotation Xrotation
							JOINT Left_wrist
							{
								OFFSET 0.232156 0.008196 -0.000339
								CHANNELS 3 Zrotation Yrotation Xrotation
								JOINT Left_palm
								{
									OFFSET 0.075377 -0.009461 -0.012494
									CHANNELS 3 Zrotation Yrotation Xrotation
									End Site
									{
										OFFSET 0.000000 0.000000 0.000000
									}
								}
							}
						}
					}
				}
				JOINT Right_collar
				{
					OFFSET -0.073768 0.107001 -0.033755
					CHANNELS 3 Zrotation Yrotation Xrotation
					JOINT Right_shoulder
					{
						OFFSET -0.086837 0.032868 -0.009431
						CHANNELS 3 Zrotation Yrotation Xrotation
						JOINT Right_elbow
						{
							OFFSET -0.236446 -0.012544 -0.018747
							CHANNELS 3 Zrotation Yrotation Xrotation
							JOINT Right_wrist
							{
								OFFSET -0.236110 0.006124 -0.004327
								CHANNELS 3 Zrotation Yrotation Xrotation
								JOINT Right_palm
								{
									OFFSET -0.074800 -0.006875 -0.009610
									CHANNELS 3 Zrotation Yrotation Xrotation
									End Site
									{
										OFFSET 0.000000 0.000000 0.000000
									}
								}
							}
						}
					}
				}
			}
		}
	}
}
MOTION
Frames: 6
Frame Time: 0.100000
0.000000 0.000000 0.000000 177.958045 18.751833 -7.917109 1.286380 6.005362 0.083717 0.298386 -8.641028 -3.469795 -4.369956 24.218534 -3.363844 9.873294 -3.910918 -1.580561 -0.043909 -6.889937 0.852199 -1.351306 3.940362 -2.763126 -1.073958 -22.018812 -2.387690 6.444686 4.172853 4.668106 0.219365 3.264687 -0.675934 1.074528 -1.583884 -6.231508 1.532109 3.025484 -0.081594 -0.736527 21.520549 4.185033 1.919694 21.063473 -3.080511 -3.386698 3.863184 -12.005014 6.275532 -15.463136 -15.822215 3.425327 10.880072 -3.933352 0.382119 -3.983208 31.943859 -2.853100 -7.068284 -1.922835 5.180638 -3.269707 -6.552187 -5.782867 10.190403 -23.229002 -9.519244 -11.334261 -11.753467 -2.342492 0.369712 31.460768 10.561046 9.361976 -4.761047 
0.001481 0.000425 -0.001722 177.894330 18.810777 -8.171413 1.436864 6.088798 0.477128 0.386913 -8.809079 -4.054351 -4.405847 24.149811 -3.083053 9.896644 -3.793646 -1.625768 0.055148 -6.891491 1.012031 -1.345246 3.938484 -2.857673 -1.156054 -22.010930 -2.336466 6.514638 4.079211 4.764686 0.195066 3.278699 -0.569971 1.077876 -1.582730 -6.018384 1.570781 3.010069 0.004464 -0.556253 21.766251 4.468910 1.932524 21.187859 -2.947232 -3.453928 3.569331 -12.033531 6.128495 -15.629101 -15.871460 3.414469 11.073246 -4.257686 0.427737 -3.797223 31.889490 -3.020141 -7.118892 -1.996800 5.243281 -3.070401 -6.509845 -5.567993 10.182543 -23.027140 -9.513117 -11.201163 -11.650126 -2.205244 0.193721 31.371868 10.673852 9.400961 -4.816581 
0.003049 0.001190 -0.004715 177.895922 18.768353 -8.214864 1.464805 6.087073 0.559507 0.483889 -8.719538 -4.555678 -4.405529 24.020415 -2.817497 9.930894 -3.707363 -1.512894 0.093729 -6.848826 0.839136 -1.306019 3.857347 -2.880624 -1.387153 -21.859433 -2.246238 6.871175 4.004118 4.929512 0.180997 3.237192 -0.620501 1.074962 -1.587540 -5.710257 1.480783 3.002421 -0.219832 -0.409978 21.558452 4.765472 1.869872 20.915774 -2.436582 -3.687341 3.566020 -12.039483 6.130487 -15.898207 -15.797193 3.551374 10.523613 -4.764765 0.572252 -3.820871 31.583616 -3.060315 -7.131959 -1.953700 5.520357 -2.967295 -6.450721 -5.553867 10.522318 -22.802592 -9.558095 -11.144702 -11.706579 -2.358125 0.159370 31.377394 10.599028 9.444796 -4.787234 
0.004221 0.001938 -0.007794 177.996196 18.439907 -8.253102 1.438329 6.096004 0.450314 0.458282 -8.389897 -4.578346 -4.268845 24.004082 -2.647809 9.722568 -3.890807 -1.461082 0.068563 -6.813258 0.698273 -1.291514 4.088153 -3.013971 -1.468784 -21.913014 -2.203091 7.086890 4.495292 5.434041 0.152033 3.307819 -0.833105 1.107846 -1.558956 -5.385749 1.232871 3.022474 -0.516407 -0.438161 18.580267 5.128648 2.076667 18.555592 0.081081 -4.191954 3.813851 -11.643422 6.130770 -16.024037 -15.554051 3.366876 9.506482 -5.171515 1.048799 -3.949455 31.235428 -2.966459 -7.299761 -1.845155 6.244540 -2.688371 -6.256568 -5.818843 10.665609 -22.420401 -9.384945 -10.918799 -11.728856 -3.023676 0.432427 31.458758 10.250259 9.479483 -4.706016 
0.005070 0.002805 -0.011064 178.215220 18.245138 -8.435974 1.294328 6.019061 0.427760 0.412181 -7.926823 -4.486211 -4.065313 23.815305 -2.422750 9.498039 -3.985391 -1.346837 -0.077423 -6.793607 0.797795 -1.349460 4.229119 -3.270291 -1.458050 -22.008114 -2.204908 6.976868 5.070245 6.085522 0.107899 3.283188 -1.143515 1.158354 -1.675398 -4.916047 0.749243 2.897308 -0.653398 -0.726534 13.399014 6.417720 2.105344 14.538619 3.512769 -4.926765 4.814978 -11.136991 5.123279 -16.464489 -15.185503 3.844987 8.363783 -6.532227 1.657260 -3.781697 30.163197 -2.910870 -7.386011 -1.563635 7.343593 -2.753331 -6.432256 -5.258440 11.639913 -21.736974 -9.885817 -10.391092 -12.287128 -4.167986 0.697334 31.037529 9.782810 9.381135 -4.418265 
0.006296 0.004405 -0.015900 178.548419 17.781695 -8.997571 1.075968 5.773479 0.647167 0.391153 -6.803949 -4.081248 -3.409255 22.989811 -2.122141 8.769587 -3.283751 -1.675021 -0.377712 -6.394000 0.916567 -1.319021 3.550203 -2.873750 -1.544779 -21.321737 -2.504156 7.011879 5.282624 6.959184 0.036321 3.207707 -1.045957 1.212413 -1.432324 -3.953307 0.018044 2.831821 -0.143211 -0.549184 9.338568 7.211498 1.427982 11.206811 5.855535 -7.079270 7.856912 -10.198691 -2.655607 -17.136883 -11.053103 7.458140 0.713881 -11.310126 10.118816 -5.904578 18.881892 -4.126958 -6.326005 0.256564 9.546359 -4.799045 -6.359575 2.057866 12.594294 -17.523709 -12.536131 -2.603378 -16.422866 -12.448591 3.645189 21.178830 10.538917 8.353277 -2.158196 
